<?xml version="1.0" encoding="UTF-8"?>
<svg id="Layer_1" data-name="Layer 1" xmlns="http://www.w3.org/2000/svg" version="1.1" xmlns:xlink="http://www.w3.org/1999/xlink" viewBox="0 0 48 48">
  <defs>
    <style>
      .cls-1 {
        fill: url(#linear-gradient);
      }

      .cls-1, .cls-2, .cls-3, .cls-4 {
        stroke-width: 0px;
      }

      .cls-2 {
        fill: #4419ba;
      }

      .cls-5 {
        fill: #000;
      }

      .cls-5, .cls-6, .cls-7, .cls-8 {
        isolation: isolate;
      }

      .cls-5, .cls-8 {
        font-family: Arial-BoldItalicMT, Arial;
        font-size: 14px;
        font-style: italic;
        font-weight: 700;
      }

      .cls-3, .cls-6, .cls-9 {
        display: none;
      }

      .cls-3, .cls-8, .cls-4 {
        fill: #fff;
      }

      .cls-10 {
        fill: #121418;
        stroke: #343843;
      }
    </style>
    <linearGradient id="linear-gradient" x1="-1398.1" y1="52.1" x2="-1397.3" y2="52.5" gradientTransform="translate(39160 -1440) scale(28)" gradientUnits="userSpaceOnUse">
      <stop offset=".4" stop-color="#9961fb"/>
      <stop offset=".7" stop-color="#5abffb"/>
    </linearGradient>
  </defs>
  <rect class="cls-10" x=".5" y=".5" width="47" height="47" rx="5.5" ry="5.5"/>
  <path class="cls-1" d="M24,38c7.7,0,14-6.3,14-14s-6.3-14-14-14-14,6.3-14,14,6.3,14,14,14Z"/>
  <path class="cls-4" d="M14.9,21.7c.2-1,.6-1.9,1.2-2.7v-.3l-3.2-2.1c-1.5,2.3-2.3,5.1-2.2,7.9h3.8c.1-.1.2-.2.2-.4,0-.8,0-1.6.3-2.4h-.1Z"/>
  <path class="cls-4" d="M16.3,29.8l-3,2.3c1.6,2.2,4,3.9,6.7,4.7l1.1-3.6c0,0,0-.3-.2-.3-1.7-.6-3.2-1.6-4.3-3,0-.1-.2-.1-.3,0h0Z"/>
  <path class="cls-4" d="M29.4,31.7c-.7.5-1.5.9-2.4,1.2-.1,0-.2.2-.1.3l1.2,3.6c2.6-.8,5-2.5,6.7-4.7l-3-2.3h-.3c-.6.7-1.2,1.3-1.9,1.8h-.2Z"/>
  <path class="cls-4" d="M37.3,21.8c-.3-1.9-1-3.7-2.1-5.3l-3.2,2.1c-.1,0-.1.2,0,.3,1,1.5,1.5,3.3,1.5,5.1s0,.2.2.2h3.8c0-.8,0-1.6-.2-2.5h0Z"/>
  <path class="cls-4" d="M28.8,11.5c-3.1-1.2-6.5-1.2-9.6,0l1.4,3.5c0,.1.2.2.3.1,2-.7,4.3-.7,6.3,0,.1,0,.3,0,.3-.1l1.3-3.5h0Z"/>
  <path class="cls-2" d="M24,15.9c1.1,0,2.2.2,3.2.6.5.2.9.5,1.4.7.4.3.8.6,1.2,1,.4.4.7.8,1,1.2.3.4.5.9.7,1.4.4,1,.6,2.1.6,3.2s-.2,2.2-.6,3.2c-.2.5-.5.9-.7,1.4-.3.4-.6.8-1,1.2-.4.4-.8.7-1.2,1-.4.3-.9.5-1.4.7-1,.4-2.1.6-3.2.6s-2.2-.2-3.2-.6c-.5-.2-.9-.5-1.4-.7-.4-.3-.8-.6-1.2-1-.4-.4-.7-.8-1-1.2-.3-.4-.5-.9-.7-1.4-.4-1-.6-2.1-.6-3.2s.2-2.2.6-3.2c.2-.5.5-.9.7-1.4.3-.4.6-.8,1-1.2.4-.4.8-.7,1.2-1,.4-.3.9-.5,1.4-.7,1-.4,2.1-.6,3.2-.6ZM24,15.6c-4.6,0-8.4,3.8-8.4,8.4s3.8,8.4,8.4,8.4,8.4-3.8,8.4-8.4-3.8-8.4-8.4-8.4Z"/>
  <path class="cls-3" d="M28.1,19.1c-.4-.4-1-.7-1.7-.7h-4.9c-.6,0-1.2.2-1.7.7s-.7,1-.7,1.7v.7c0,1,.6,1.8,1.6,2.2l.4.2v-2.4h0v-.9h5.3v1.8h2v-1.6c0-.6-.2-1.2-.7-1.7h.4Z"/>
  <path class="cls-3" d="M27.2,24.2h0l-.4-.2v2.4h0v.9h-5.1c-.2,0-.3-.2-.3-.3v-1.6h-2v1.6c0,1.3,1.1,2.4,2.3,2.4h4.9c.6,0,1.2-.2,1.7-.7s.7-1,.7-1.7v-.7c0-1-.6-1.8-1.6-2.3h0l-.2.2Z"/>
  <path class="cls-3" d="M23.1,24.9h0c.7.7.9,1.6.9,1.6,0,0,.1-.6.5-1.2,0-.1.2-.3.4-.4.7-.7,1.6-.9,1.6-.9,0,0-.7-.1-1.3-.6,0,0-.2-.2-.3-.2-.7-.7-.9-1.6-.9-1.6,0,0-.1.6-.5,1.2,0,.1-.2.3-.4.4-.7.7-1.6.9-1.6.9,0,0,.7.1,1.3.6,0,0,.2.2.3.2h0Z"/>
  <g class="cls-9">
    <path class="cls-4" d="M22.4,29.5c-.3,0-.4,0-.5-.3l-3.6-9.2c0-.2,0-.3.2-.3h2.4c.3,0,.4,0,.5.3l2.6,7.3,2.7-7.3c0-.2.2-.3.4-.3h2.3c.2,0,.3.1.2.3l-3.6,9.2c0,.2-.2.3-.4.3h-3.2Z"/>
  </g>
  <g class="cls-7">
    <text class="cls-8" transform="translate(17.2 29.5)"><tspan x="0" y="0">V</tspan></text>
  </g>
  <g class="cls-6">
    <text class="cls-5" transform="translate(12.1 27.2)"><tspan x="0" y="0">V</tspan></text>
  </g>
  <image class="cls-6" width="2062" height="2621" transform="translate(-30.5 23.4) scale(1)" xlink:href="../Downloads/Vortex SVG-1.png"/>
</svg>